<svg xmlns="http://www.w3.org/2000/svg" viewBox="0 0 20 20" width="20" height="20">
  <path fill="currentColor" d="M3.502 17.5V3.848c0-.558.315-1.106.873-1.343l.432-.17c2.129-.761 3.72-.258 5.141.269 1.504.557 2.728 1.086 4.447.589l.177-.04c.893-.15 1.927.447 1.927 1.529V11.9c0 .596-.363 1.167-.956 1.378l-.121.037c-2.494.643-4.255-.076-5.814-.553-.784-.24-1.515-.422-2.32-.418-.707.004-1.503.152-2.456.577v4.58a.665.665 0 0 1-1.33 0m1.33-6.015c.888-.331 1.692-.467 2.449-.471 1.012-.005 1.899.227 2.716.477 1.645.503 3.027 1.07 5.092.537l.026-.012a.1.1 0 0 0 .024-.024.16.16 0 0 0 .03-.092V4.682c0-.055-.025-.115-.104-.166a.37.37 0 0 0-.221-.06l-.08.014c-2.205.638-3.846-.088-5.279-.62-1.332-.493-2.559-.867-4.247-.257l-.344.136c-.023.01-.062.046-.062.119z"></path>
</svg>
