<svg xmlns="http://www.w3.org/2000/svg" viewBox="0 0 20 20" fill="currentColor"><path d="M2.669 11.333V8.667c0-.922 0-1.655.048-2.244.048-.597.15-1.106.387-1.571l.155-.276a4 4 0 0 1 1.593-1.472l.177-.083c.418-.179.872-.263 1.395-.305.589-.048 1.32-.048 2.243-.048h.5a.665.665 0 0 1 0 1.33h-.5c-.944 0-1.613 0-2.135.043-.386.032-.66.085-.876.162l-.2.086a2.67 2.67 0 0 0-1.064.982l-.102.184c-.126.247-.206.562-.248 1.076-.043.523-.043 1.192-.043 2.136v2.666c0 .944 0 1.613.043 2.136.042.514.122.829.248 1.076l.102.184c.257.418.624.758 1.064.982l.2.086c.217.077.49.13.876.161.522.043 1.19.044 2.135.044h2.667c.944 0 1.612-.001 2.135-.044.514-.042.829-.121 1.076-.247l.184-.104c.418-.256.759-.623.983-1.062l.086-.2c.077-.217.13-.49.16-.876.043-.523.044-1.192.044-2.136v-.5a.665.665 0 0 1 1.33 0v.5c0 .922.001 1.655-.047 2.244-.043.522-.127.977-.306 1.395l-.083.176a4 4 0 0 1-1.471 1.593l-.276.154c-.466.238-.975.34-1.572.39-.59.047-1.321.047-2.243.047H8.667c-.923 0-1.654 0-2.243-.048-.523-.043-.977-.126-1.395-.305l-.177-.084a4 4 0 0 1-1.593-1.471l-.155-.276c-.237-.465-.339-.974-.387-1.57-.049-.59-.048-1.322-.048-2.245m10.796-8.22a2.43 2.43 0 0 1 3.255.167l.167.185c.727.892.727 2.18 0 3.071l-.168.185-5.046 5.048a4 4 0 0 1-1.945 1.072l-.317.058-1.817.26a.665.665 0 0 1-.752-.753l.26-1.816.058-.319a4 4 0 0 1 1.072-1.944L13.28 3.28zm2.314 1.108a1.103 1.103 0 0 0-1.476-.076l-.084.076-5.046 5.048a2.67 2.67 0 0 0-.716 1.296l-.04.212-.134.939.94-.134.211-.039a2.67 2.67 0 0 0 1.298-.716L15.78 5.78l.076-.084c.33-.404.33-.988 0-1.392z"></path></svg>
