<svg xmlns="http://www.w3.org/2000/svg" viewBox="0 0 20 20" fill="currentColor"><path d="M15.204 17.5v-1.835H13.37a.665.665 0 0 1 0-1.33h1.835V12.5a.665.665 0 0 1 1.33 0v1.835h1.835a.665.665 0 0 1 0 1.33h-1.836V17.5a.665.665 0 1 1-1.329 0M2.12 12.7V7.3c0-.654 0-1.185.034-1.614.036-.437.112-.828.297-1.19l.117-.21a3.04 3.04 0 0 1 1.212-1.12l.138-.064c.324-.14.67-.202 1.053-.233.43-.035.96-.034 1.614-.034h.695c.143 0 .243 0 .341.006l.254.026a3.04 3.04 0 0 1 1.582.738l.245.24c.112.113.15.15.185.181l.111.091c.267.2.587.32.922.34l.26.003h2.511c.559 0 1.012 0 1.38.025.375.027.712.082 1.031.218l.264.128a3.04 3.04 0 0 1 1.341 1.477l.087.242c.074.245.11.503.13.782.026.366.026.815.026 1.368a.665.665 0 0 1-.665.665H3.45V12.7c0 .676 0 1.143.03 1.506.03.355.083.55.157.695l.065.119c.164.267.4.485.682.628l.12.052c.133.048.31.083.575.105.363.03.83.03 1.506.03h2.824l.135.014a.665.665 0 0 1 0 1.302l-.135.014H6.585c-.654 0-1.185 0-1.614-.034-.383-.031-.73-.094-1.053-.233l-.138-.064c-.5-.255-.92-.643-1.212-1.12l-.117-.21c-.185-.362-.261-.753-.297-1.19-.035-.429-.034-.96-.034-1.614m1.33-4.665h13.167c-.002-.24-.007-.437-.02-.608a2.3 2.3 0 0 0-.077-.493l-.037-.105A1.7 1.7 0 0 0 15.73 6l-.148-.072c-.127-.054-.297-.093-.602-.114a20 20 0 0 0-1.288-.023H11.18l-.342-.006a3.04 3.04 0 0 1-1.639-.603l-.197-.161c-.074-.066-.143-.138-.244-.24L8.572 4.6a1.7 1.7 0 0 0-.89-.416l-.142-.015c-.048-.003-.1-.003-.26-.003h-.695c-.676 0-1.143 0-1.506.03a2.3 2.3 0 0 0-.575.105l-.12.052a1.7 1.7 0 0 0-.682.628l-.065.119c-.074.144-.128.34-.157.695-.03.363-.03.83-.03 1.506z"></path></svg>
