<svg xmlns="http://www.w3.org/2000/svg" viewBox="0 0 20 20" fill="currentColor"><path d="M13.998 9.088v1.823l3.254 2.366V6.722zm4.584 4.268c0 .988-1.052 1.586-1.886 1.145l-.163-.102-2.545-1.85q-.006.306-.026.564c-.033.4-.098.762-.242 1.098l-.067.143c-.265.52-.669.957-1.165 1.26l-.217.123c-.377.192-.784.27-1.242.308-.45.037-1.007.036-1.696.036H6.5c-.69 0-1.246.001-1.696-.036-.401-.033-.762-.098-1.098-.242l-.143-.066a3.17 3.17 0 0 1-1.261-1.165l-.122-.218c-.192-.377-.271-.783-.309-1.241-.037-.45-.036-1.008-.036-1.697V8.583c0-.689 0-1.246.036-1.696.038-.458.117-.864.309-1.24l.122-.219c.304-.496.74-.9 1.261-1.165l.143-.066c.336-.145.697-.21 1.098-.243.45-.036 1.007-.036 1.696-.036h2.833c.689 0 1.246 0 1.696.036.458.038.865.117 1.242.309l.217.122c.496.304.9.74 1.165 1.262l.067.142c.144.337.21.697.242 1.098q.02.258.026.564l2.545-1.85.163-.103c.834-.44 1.886.158 1.886 1.146zm-15.417-1.94c0 .711.001 1.205.032 1.588.03.376.088.587.168.745l.07.127c.177.288.43.522.732.676l.13.056c.144.051.333.089.615.112.384.031.877.031 1.588.031h2.833c.71 0 1.204 0 1.588-.03.375-.032.587-.088.745-.169l.127-.071c.287-.176.522-.43.676-.732l.055-.13c.052-.143.09-.333.113-.615.031-.383.031-.877.031-1.588V8.583c0-.71 0-1.204-.031-1.588a2.4 2.4 0 0 0-.113-.615l-.055-.13a1.84 1.84 0 0 0-.676-.731l-.127-.07c-.158-.08-.37-.138-.745-.168-.384-.032-.877-.033-1.588-.033H6.5c-.711 0-1.204.001-1.588.033-.282.023-.471.06-.615.11l-.13.058a1.84 1.84 0 0 0-.731.675l-.07.126c-.081.158-.138.37-.169.745-.031.384-.032.877-.032 1.588z"></path></svg>
