<svg xmlns="http://www.w3.org/2000/svg" viewBox="0 0 20 20" fill="currentColor"><path d="M16.618 9.332H3.382V12.7c0 .675 0 1.144.03 1.508.03.357.083.558.16.708l.067.12c.167.273.408.496.695.643l.123.052c.137.05.317.085.585.107.364.03.833.03 1.508.03h6.9c.675 0 1.144 0 1.508-.03.357-.03.558-.083.708-.16l.12-.067c.273-.167.496-.408.643-.695l.052-.123c.05-.137.085-.317.107-.585.03-.364.03-.833.03-1.508zm1.264 3.368c0 .655 0 1.184-.034 1.612-.031.38-.094.723-.23 1.043l-.064.135c-.252.495-.636.91-1.107 1.199l-.207.115c-.358.182-.743.258-1.178.294-.428.035-.957.034-1.612.034h-6.9c-.655 0-1.184 0-1.612-.034-.38-.031-.723-.094-1.042-.23l-.136-.064a3 3 0 0 1-1.198-1.107l-.116-.207c-.182-.358-.258-.743-.294-1.178-.035-.428-.034-.957-.034-1.612V7.3c0-.655 0-1.184.034-1.612.036-.435.112-.82.294-1.178l.116-.207A3 3 0 0 1 3.76 3.196l.136-.063c.32-.137.662-.2 1.042-.23.428-.036.957-.035 1.612-.035h.695c.144 0 .242 0 .339.006l.251.026c.58.085 1.125.338 1.565.73l.244.238c.111.113.15.15.186.183l.112.093c.272.204.6.325.94.346l.263.003h2.305c.655 0 1.184 0 1.612.034.435.036.82.112 1.178.294l.207.116c.471.288.855.703 1.107 1.198l.063.136c.137.32.2.662.23 1.042.036.428.035.957.035 1.612zm-14.5-4.632h13.232a10 10 0 0 0-.026-.651 2.3 2.3 0 0 0-.107-.585l-.052-.123a1.75 1.75 0 0 0-.643-.695l-.12-.068c-.15-.076-.351-.13-.708-.159-.364-.03-.833-.03-1.508-.03h-2.305l-.34-.006a3 3 0 0 1-1.621-.597l-.195-.16c-.072-.065-.142-.135-.243-.237l-.186-.183a1.75 1.75 0 0 0-.909-.424l-.144-.015c-.05-.003-.103-.003-.262-.003H6.55c-.675 0-1.144 0-1.508.03a2.3 2.3 0 0 0-.585.107l-.123.052c-.287.147-.528.37-.695.643l-.068.12c-.076.15-.13.351-.159.708-.03.364-.03.833-.03 1.508z"></path></svg>
