<svg xmlns="http://www.w3.org/2000/svg" viewBox="0 0 20 20" fill="currentColor"><path d="M8.502 17.5v-1.002H6.5c-.69 0-1.246 0-1.696-.036-.401-.033-.762-.098-1.098-.242l-.143-.067a3.17 3.17 0 0 1-1.261-1.165l-.122-.217c-.192-.377-.271-.784-.309-1.242-.037-.45-.036-1.007-.036-1.696V8.167c0-.689 0-1.246.036-1.696.038-.458.117-.865.309-1.242l.122-.217c.304-.496.74-.9 1.261-1.165l.143-.067c.336-.144.697-.21 1.098-.242.45-.037 1.007-.036 1.696-.036h2.002V2.5a.665.665 0 0 1 1.33 0v15a.665.665 0 0 1-1.33 0m8.333-5.667V8.167c0-.71 0-1.204-.032-1.588a2.4 2.4 0 0 0-.112-.615l-.056-.13a1.84 1.84 0 0 0-.676-.731l-.126-.072c-.158-.08-.37-.137-.745-.168-.384-.031-.877-.031-1.588-.031h-1a.665.665 0 0 1 0-1.33h1c.69 0 1.246 0 1.696.036.458.038.864.117 1.24.309l.22.122c.495.304.899.74 1.164 1.26l.067.143c.144.337.21.698.242 1.099.037.45.036 1.007.036 1.696v3.666c0 .689 0 1.246-.036 1.696-.033.401-.098.762-.242 1.099l-.067.143c-.265.52-.67.956-1.165 1.26l-.219.122c-.376.192-.782.271-1.24.309-.45.037-1.007.036-1.696.036h-1a.665.665 0 1 1 0-1.33h1c.711 0 1.204 0 1.588-.031.376-.031.587-.088.745-.168l.126-.071c.288-.177.522-.43.676-.732l.056-.13a2.4 2.4 0 0 0 .112-.615c.031-.384.032-.877.032-1.588m-13.67 0c0 .71.001 1.204.032 1.588.03.376.088.587.168.745l.07.127c.177.287.43.522.732.676l.13.055c.144.052.333.09.615.113.384.031.877.031 1.588.031h2.002V4.832H6.5c-.711 0-1.204 0-1.588.031a2.4 2.4 0 0 0-.615.113l-.13.055a1.84 1.84 0 0 0-.731.676l-.07.127c-.081.158-.138.37-.169.745-.031.384-.032.877-.032 1.588z"></path></svg>
