<svg xmlns="http://www.w3.org/2000/svg" viewBox="0 0 20 20" fill="currentColor"><path d="M10 2.335c2.612 0 4.664 1.282 6.147 2.733 1.48 1.45 2.443 3.113 2.898 4.003l.098.225c.168.455.168.953 0 1.408l-.098.225c-.455.89-1.418 2.553-2.898 4.003-1.483 1.451-3.535 2.733-6.147 2.733s-4.665-1.282-6.147-2.733c-1.296-1.268-2.194-2.7-2.704-3.635l-.194-.368c-.3-.586-.3-1.272 0-1.858l.194-.368c.51-.935 1.408-2.367 2.704-3.635C5.335 3.617 7.388 2.335 10 2.335m0 1.33c-2.146 0-3.882 1.047-5.217 2.354C3.613 7.163 2.79 8.473 2.32 9.336l-.18.34a.7.7 0 0 0 0 .647l.18.341c.47.863 1.295 2.173 2.464 3.317 1.335 1.307 3.071 2.354 5.217 2.354s3.882-1.047 5.217-2.354c1.336-1.308 2.221-2.831 2.643-3.658l.035-.078c.059-.16.059-.33 0-.49l-.035-.078c-.422-.827-1.307-2.35-2.643-3.658S12.146 3.665 10 3.665M12.252 10a2.252 2.252 0 1 0-4.504 0 2.252 2.252 0 0 0 4.504 0m1.33 0a3.582 3.582 0 1 1-7.164 0 3.582 3.582 0 0 1 7.163 0"></path></svg>
