<svg xmlns="http://www.w3.org/2000/svg" viewBox="0 0 20 20" fill="currentColor"><path d="M2.669 14.167v-5.18A2.32 2.32 0 0 1 1.69 7.82l-.074-.227-.161-.603a2.33 2.33 0 0 1 1.648-2.857l10.867-2.91.234-.05a2.33 2.33 0 0 1 2.622 1.698l.161.603.05.233a2.33 2.33 0 0 1-1.47 2.55l-.228.073L4.473 9.243a2.3 2.3 0 0 1-.475.076v4.847c0 1.014.822 1.835 1.836 1.835h8.333a1.835 1.835 0 0 0 1.835-1.835V8.333a.665.665 0 1 1 1.33 0v5.833a3.165 3.165 0 0 1-3.165 3.165H5.834a3.165 3.165 0 0 1-3.165-3.165m8.998-3.999.133.014a.665.665 0 0 1 0 1.303l-.133.014H8.334a.665.665 0 0 1 0-1.33zm3.875-6.952a1 1 0 0 0-1.126-.73l-.1.021L3.448 5.42a1 1 0 0 0-.709 1.227l.162.603.031.098c.18.475.695.746 1.196.611l10.867-2.912.098-.03c.442-.17.707-.629.631-1.097l-.021-.1z"></path></svg>
