<svg xmlns="http://www.w3.org/2000/svg" viewBox="0 0 20 20" fill="currentColor"><path d="M6.835 4c-.451.004-.82.012-1.137.038-.386.032-.659.085-.876.162l-.2.086c-.44.224-.807.564-1.063.982l-.103.184c-.126.247-.206.562-.248 1.076-.043.523-.043 1.19-.043 2.135v2.664c0 .944 0 1.612.043 2.135.042.515.122.829.248 1.076l.103.184c.256.418.624.758 1.063.982l.2.086c.217.077.49.13.876.162.316.026.685.034 1.136.038zm11.33 7.327c0 .922 0 1.654-.048 2.243-.043.522-.125.977-.305 1.395l-.082.177a4 4 0 0 1-1.473 1.593l-.276.155c-.465.237-.974.338-1.57.387-.59.048-1.322.048-2.244.048H7.833c-.922 0-1.654 0-2.243-.048-.522-.042-.977-.126-1.395-.305l-.176-.082a4 4 0 0 1-1.594-1.473l-.154-.275c-.238-.466-.34-.975-.388-1.572-.048-.589-.048-1.32-.048-2.243V8.663c0-.922 0-1.654.048-2.243.049-.597.15-1.106.388-1.571l.154-.276a4 4 0 0 1 1.594-1.472l.176-.083c.418-.18.873-.263 1.395-.305.589-.048 1.32-.048 2.243-.048h4.334c.922 0 1.654 0 2.243.048.597.049 1.106.15 1.571.388l.276.154a4 4 0 0 1 1.473 1.594l.082.176c.18.418.262.873.305 1.395.048.589.048 1.32.048 2.243zm-10 4.668h4.002c.944 0 1.612 0 2.135-.043.514-.042.829-.122 1.076-.248l.184-.103c.418-.256.758-.624.982-1.063l.086-.2c.077-.217.13-.49.162-.876.043-.523.043-1.19.043-2.135V8.663c0-.944 0-1.612-.043-2.135-.032-.386-.085-.659-.162-.876l-.086-.2a2.67 2.67 0 0 0-.982-1.063l-.184-.103c-.247-.126-.562-.206-1.076-.248-.523-.043-1.19-.043-2.135-.043H8.164L8.165 4z"></path></svg>
